<svg aria-hidden="true" style="position: absolute; width: 0; height: 0; overflow: hidden;" version="1.1" xmlns="http://www.w3.org/2000/svg" xmlns:xlink="http://www.w3.org/1999/xlink">
<defs>
<symbol id="arrow-down" viewBox="0 0 64 32">
<path d="M32 26.666l-26.667-26.533h53.333l-26.667 26.533z"></path>
</symbol>
<symbol id="arrow-left" viewBox="0 0 32 32">
<path fill="#fff" style="fill: var(--color1, #fff)" d="M16 0.762l2 2.048-11.762 11.762h25v2.857h-25l11.762 11.762-2 2.048-15.238-15.238 15.238-15.238z"></path>
</symbol>
<symbol id="arrow-right" viewBox="0 0 32 32">
<path fill="#fff" style="fill: var(--color1, #fff)" d="M16 31.238l-2-2.048 11.762-11.762h-25v-2.857h25l-11.762-11.762 2-2.048 15.238 15.238-15.238 15.238z"></path>
</symbol>
<symbol id="burger" viewBox="0 0 59 32">
<path stroke-linejoin="miter" stroke-linecap="round" stroke-miterlimit="4" stroke-width="4.9231" d="M2.462 3.692h54.154"></path>
<path stroke-linejoin="miter" stroke-linecap="round" stroke-miterlimit="4" stroke-width="4.9231" d="M2.462 16h54.154"></path>
<path stroke-linejoin="miter" stroke-linecap="round" stroke-miterlimit="4" stroke-width="4.9231" d="M2.462 28.308h54.154"></path>
</symbol>
<symbol id="close" viewBox="0 0 32 32">
<path d="M5.25 28.85l-2.1-2.1 11.55-11.55-11.55-11.55 2.1-2.1 11.55 11.55 11.55-11.55 2.1 2.1-11.55 11.55 11.55 11.55-2.1 2.1-11.55-11.55-11.55 11.55z"></path>
</symbol>
<symbol id="flag" viewBox="0 0 50 32">
<path fill="#ffd500" style="fill: var(--color2, #ffd500)" d="M1.778 2.222h45.333v29.333h-45.333v-29.333z"></path>
<path fill="#005bbb" style="fill: var(--color3, #005bbb)" d="M1.778 0.889h45.333v16h-45.333v-16z"></path>
</symbol>
<symbol id="logo_plerdy_2" viewBox="0 0 49 32">
<path d="M0.533 18.509v9.291c0 1.683 1.406 3.049 3.142 3.049h8.478v-16.472l-11.62 4.132z"></path>
<path d="M12.637 14.378l4.15 6.047v10.425l-4.15-5.531v-10.94z"></path>
<path d="M17.273 11.701v19.148h11.626l-0.006-23.279-11.62 4.132z"></path>
<path d="M29.377 7.569l4.725 7.962v15.318l-4.723-8.19-0.003-15.090z"></path>
<path d="M34.587 4.681v26.169h10.013c1.735 0 3.141-1.365 3.141-3.049v-27.801l-13.154 4.681z"></path>
</symbol>
</defs>
</svg>
